<svg width="124" height="124" viewBox="0 0 124 124" fill="none" xmlns="http://www.w3.org/2000/svg">
<circle cx="62" cy="62" r="62" fill="#24476B"/>
<g clip-path="url(#clip0_124_2218)">
<path d="M46.2078 33.2298C45.8399 28.7665 43.1819 26.1383 38.8501 26H31.4923C31.0045 26 30.5366 26.1943 30.1916 26.5402C29.8467 26.8861 29.6529 27.3552 29.6529 27.8443V37.9882H27.8135C27.3256 37.9882 26.8577 38.1825 26.5128 38.5283C26.1678 38.8742 25.974 39.3434 25.974 39.8325C25.974 40.3216 26.1678 40.7908 26.5128 41.1366C26.8577 41.4825 27.3256 41.6768 27.8135 41.6768H29.6529V43.5212H27.8135C27.3256 43.5212 26.8577 43.7155 26.5128 44.0614C26.1678 44.4073 25.974 44.8764 25.974 45.3655C25.974 45.8547 26.1678 46.3238 26.5128 46.6697C26.8577 47.0156 27.3256 47.2099 27.8135 47.2099H29.6529V49.9763C29.6529 50.4655 29.8467 50.9346 30.1916 51.2805C30.5366 51.6264 31.0045 51.8207 31.4923 51.8207C31.9802 51.8207 32.448 51.6264 32.793 51.2805C33.138 50.9346 33.3318 50.4655 33.3318 49.9763V41.6768H38.9145C43.2095 41.5385 46.0055 38.7443 46.2078 34.2995V33.3773C46.2078 33.3312 46.2078 33.2759 46.2078 33.2298ZM38.8501 37.9882H33.3318V29.6887H38.7857C41.1494 29.7624 42.299 30.9336 42.529 33.4603V34.2165C42.4186 36.6787 41.1953 37.9144 38.8501 37.9882Z" fill="#99CC99"/>
<path d="M37.4343 43.3188H32.7735C32.279 43.3188 31.8048 43.5273 31.4552 43.8985C31.1055 44.2697 30.9091 44.7731 30.9091 45.298C30.9091 45.823 31.1055 46.3264 31.4552 46.6976C31.8048 47.0688 32.279 47.2773 32.7735 47.2773H37.4343C37.9288 47.2773 38.403 47.0688 38.7526 46.6976C39.1023 46.3264 39.2987 45.823 39.2987 45.298C39.2987 44.7731 39.1023 44.2697 38.7526 43.8985C38.403 43.5273 37.9288 43.3188 37.4343 43.3188Z" fill="#99CC99"/>
<path d="M41.3824 43.3188H36.7215C36.227 43.3188 35.7529 43.5273 35.4032 43.8985C35.0536 44.2697 34.8571 44.7731 34.8571 45.298C34.8571 45.823 35.0536 46.3264 35.4032 46.6976C35.7529 47.0688 36.227 47.2773 36.7215 47.2773H41.3824C41.8769 47.2773 42.351 47.0688 42.7007 46.6976C43.0503 46.3264 43.2468 45.823 43.2468 45.298C43.2468 44.7731 43.0503 44.2697 42.7007 43.8985C42.351 43.5273 41.8769 43.3188 41.3824 43.3188Z" fill="#99CC99"/>
<path d="M53.3877 41.3951H69.3279C70.8248 41.397 72.2597 41.9899 73.3182 43.0439C74.3766 44.098 74.9718 45.527 74.9738 47.0176V54.5343L72.9794 52.7673C72.5345 52.3732 71.9507 52.1713 71.3563 52.2059C70.7619 52.2405 70.2057 52.5089 69.81 52.9519C69.4143 53.3949 69.2116 53.9763 69.2463 54.5682C69.281 55.16 69.5505 55.7139 69.9954 56.108L75.7264 61.1865C76.1375 61.5506 76.6685 61.7517 77.2187 61.7517C77.7685 61.7517 78.2995 61.5506 78.7106 61.1865L84.4417 56.108C84.6623 55.9129 84.8414 55.6765 84.9703 55.4123C85.0986 55.1481 85.1736 54.8613 85.1908 54.5682C85.2081 54.2751 85.1672 53.9816 85.0704 53.7043C84.9737 53.4269 84.8232 53.1713 84.6273 52.9519C84.4313 52.7326 84.194 52.5538 83.9285 52.4258C83.6634 52.2978 83.3752 52.2231 83.0811 52.206C82.787 52.1888 82.4919 52.2295 82.2135 52.3259C81.9352 52.4222 81.6781 52.5722 81.458 52.7673L79.4632 54.5343V47.0176C79.4603 44.3416 78.3913 41.7761 76.4913 39.8839C74.5913 37.9918 72.0149 36.9273 69.3277 36.9241H53.3877C53.0929 36.9241 52.801 36.9819 52.5286 37.0943C52.2563 37.2066 52.0088 37.3713 51.8004 37.5789C51.5919 37.7865 51.4266 38.0329 51.3138 38.3041C51.2009 38.5754 51.1429 38.866 51.1429 39.1596C51.1429 39.4532 51.2009 39.7439 51.3138 40.0151C51.4266 40.2863 51.5919 40.5328 51.8004 40.7404C52.0088 40.9479 52.2563 41.1126 52.5286 41.225C52.801 41.3373 53.0929 41.3951 53.3877 41.3951Z" fill="#99CC99"/>
<path d="M47.9105 84.5876H39.8661C38.3692 84.5861 36.9341 83.9928 35.8756 82.9376C34.8172 81.8829 34.2218 80.4528 34.22 78.9612V64.0098L36.2144 65.7788C36.4347 65.9741 36.6914 66.1242 36.9699 66.2206C37.2484 66.317 37.5432 66.3577 37.8375 66.3406C38.1318 66.3234 38.4198 66.2487 38.6852 66.1206C38.9505 65.9925 39.1879 65.8136 39.3838 65.594C39.5797 65.3746 39.7303 65.1187 39.827 64.8412C39.9238 64.5636 39.9647 64.2698 39.9475 63.9766C39.9302 63.6832 39.8552 63.3962 39.7267 63.1318C39.5982 62.8675 39.4186 62.6309 39.1984 62.4356L33.4671 57.352C33.0559 56.9873 32.5246 56.7859 31.9742 56.7862C31.4238 56.7864 30.8926 56.9882 30.4818 57.3533L24.7517 62.4364C24.5315 62.6318 24.3522 62.8686 24.2238 63.1331C24.0955 63.3976 24.0207 63.6847 24.0037 63.978C23.9867 64.2714 24.0279 64.5652 24.1248 64.8426C24.2218 65.1202 24.3726 65.3759 24.5688 65.5953C24.7649 65.8146 25.0024 65.9934 25.2679 66.1213C25.5333 66.2492 25.8214 66.3237 26.1158 66.3406C26.4101 66.3576 26.7049 66.3166 26.9834 66.2199C27.2618 66.1234 27.5184 65.973 27.7386 65.7776L29.7305 64.0105V78.9612C29.7338 81.6391 30.8027 84.2063 32.7028 86.1001C34.603 87.9935 37.1792 89.0591 39.8664 89.0621H47.9109C48.5063 89.0621 49.0773 88.8262 49.4983 88.4066C49.9193 87.987 50.1558 87.418 50.1558 86.8251C50.1558 86.2317 49.9193 85.6627 49.4983 85.2431C49.0773 84.8235 48.5059 84.5876 47.9105 84.5876Z" fill="#6699CC"/>
<mask id="mask0_124_2218" style="mask-type:luminance" maskUnits="userSpaceOnUse" x="55" y="67" width="45" height="31">
<path d="M100 67.7104H55.0909V98H100V67.7104Z" fill="white"/>
</mask>
<g mask="url(#mask0_124_2218)">
<path d="M70.5673 72.4691C67.5255 72.3944 67.0742 75.2529 67.2288 76.6915C69.2915 76.7665 71.8453 76.7997 74.8331 76.7402C73.9058 73.5467 74.3697 72.5624 70.5673 72.4691Z" fill="#224567"/>
<path d="M66.3942 69.8565C64.0201 71.3494 62.3138 74.7707 61.7574 76.2948C62.6369 76.4214 64.5046 76.5927 67.2288 76.6915C67.0742 75.2529 67.5256 72.3945 70.5673 72.4691C74.3698 72.5624 73.9059 73.5467 74.8332 76.7402C75.6657 76.7238 76.6058 76.6682 77.43 76.6682V71.5988C74.8332 71.5988 74.1018 71.7855 74.1018 69.3899C69.2594 69.3634 67.43 69.6645 66.3942 69.8565Z" fill="#0F1F2E"/>
<path d="M77.43 69.3899C76.7193 69.3723 74.7512 69.3935 74.1018 69.3899C74.1018 71.7855 74.8332 71.5989 77.43 71.5989V69.3899Z" fill="#224567"/>
<path d="M61.7573 76.2947C62.3137 74.7708 64.0201 71.3494 66.3941 69.8565C67.4299 69.6645 69.2593 69.3635 74.1018 69.3899C74.7512 69.3935 76.7193 69.3723 77.43 69.3899V68.5502C73.5456 68.5502 68.8671 68.8923 66.9505 69.11C63.9719 69.9663 61.547 73.9035 60.583 76.0147C60.5385 76.112 60.4971 76.2059 60.459 76.2947H61.7573Z" fill="#6699CC"/>
<path d="M68.3416 82.9197C70.3509 83.0439 74.8332 83.1064 77.43 83.1064V78.0674C74.5657 78.0674 66.3014 77.4765 62.4992 77.041C62.3508 77.5505 65.2023 80.6748 66.6466 82.1729C67.2571 82.4261 67.8304 82.6799 68.3416 82.9197Z" fill="#6699CC"/>
<path d="M55.6368 81.6133C55.8841 81.7687 56.49 82.0984 56.9351 82.1734C56.481 79.1464 61.0281 80.0775 65.0032 81.5314C60.522 77.7829 58.6505 77.2014 58.1521 77.402C58.117 77.4264 58.0823 77.4507 58.0479 77.476C56.9131 78.3003 56.1639 79.4915 55.6368 81.6133Z" fill="#6699CC"/>
<path d="M65.0032 81.5314C65.5679 81.7379 66.121 81.9554 66.6467 82.1729C65.2024 80.6748 62.3508 77.5505 62.4992 77.0411C66.3014 77.4765 74.5657 78.0674 77.43 78.0674V76.6681C76.6058 76.6681 75.6657 76.7238 74.8332 76.7401C71.8453 76.7997 69.2915 76.7665 67.2288 76.6915C64.5046 76.5927 62.6369 76.4214 61.7574 76.2947H60.459C60.3225 76.3538 60.1952 76.4 60.0767 76.4363C59.3361 76.7198 58.7003 77.0217 58.1521 77.402C58.6505 77.2014 60.5219 77.7824 65.0032 81.5314Z" fill="white"/>
<path d="M55.1731 90.1043C55.1731 91.1878 55.3756 92.1834 55.6336 92.9973C55.9092 93.8652 56.248 94.5261 56.4714 94.8633C57.8943 95.0867 59.897 95.2546 62.1389 95.3792C67.3777 95.6702 73.9226 95.7248 77.43 95.703V94.5832C72.8036 94.5832 70.8764 93.8369 70.5673 93.2768L68.3416 93.2162L61.1082 93.0196L60.2736 92.9973C60.8695 90.8512 62.5198 86.559 64.354 86.559H77.43V83.1064C74.8332 83.1064 70.3509 83.0439 68.3416 82.9197C67.1546 83.5171 65.9305 84.537 65.4668 84.9725L59.6244 84.3195C58.9567 84.6924 58.6661 89.9489 58.6043 92.5305C57.1205 91.0374 56.8732 85.0038 56.9351 82.1734C56.4899 82.0984 55.884 81.7687 55.6368 81.6133C54.8021 84.9725 55.1731 87.3053 55.1731 90.1043Z" fill="#6699CC"/>
<path d="M77.43 87.8649H66.9506C67.4143 89.2334 68.7311 91.7281 70.2891 92.2504C71.5565 92.4372 74.8331 92.8106 77.43 92.8106V87.8649Z" fill="#6699CC"/>
<path d="M64.354 87.8649C63.6121 87.8649 61.881 91.3015 61.1082 93.0196L68.3416 93.2162C67.3215 91.4326 65.0959 87.8649 64.354 87.8649Z" fill="#224567"/>
<path d="M59.6244 84.3195L65.4668 84.9725C65.9305 84.537 67.1546 83.5166 68.3416 82.9197C67.5997 82.9197 65.9923 83.7281 65.2813 84.1328L57.2369 82.9197C57.7865 83.6 58.9552 84.1105 59.6244 84.3195Z" fill="white"/>
<path d="M65.0031 81.5314C61.0281 80.0775 56.481 79.1465 56.9351 82.1734C56.9351 82.4381 57.0503 82.6889 57.2369 82.9198L65.2813 84.1328C65.9923 83.7281 67.5997 82.9198 68.3416 82.9198C67.8304 82.6804 67.2571 82.4262 66.6467 82.1734C66.121 81.9554 65.5679 81.7385 65.0031 81.5314Z" fill="#0F1F2E"/>
<path d="M56.935 82.1729C56.8733 85.0038 57.1206 91.0374 58.6043 92.5305C58.6662 89.9489 58.9567 84.6924 59.6244 84.3195C58.9552 84.1105 57.7865 83.6 57.2369 82.9197C57.0503 82.6888 56.935 82.4381 56.935 82.1729Z" fill="#0F1F2E"/>
<path d="M66.9506 87.8649H77.43V86.5585H64.354C62.5198 86.5585 60.8695 90.8507 60.2736 92.9968L61.1082 93.0196C61.881 91.3015 63.6121 87.8649 64.354 87.8649C65.0959 87.8649 67.3216 91.4326 68.3416 93.2162L70.5673 93.2768C70.8764 93.8369 72.8036 94.5832 77.43 94.5832V92.8106C74.8332 92.8106 71.5565 92.4371 70.2891 92.2504C68.7312 91.7281 67.4143 89.2334 66.9506 87.8649Z" fill="#0F1F2E"/>
<path d="M77.43 67.7104C70.5673 67.7104 67.6924 68.5501 66.9506 69.11C68.8671 68.8923 73.5456 68.5501 77.43 68.5501V67.7104Z" fill="white"/>
<path d="M60.459 76.2947C60.4972 76.2059 60.5385 76.112 60.583 76.0147C60.418 76.108 59.9397 76.2386 59.3462 76.0147C59.7172 74.9573 60.0325 72.973 58.3261 73.4955C56.1932 74.1486 55.8222 74.0553 56.0077 75.1751C56.1561 76.0708 57.9242 76.2947 58.7898 76.2947C58.8971 76.4571 59.2937 76.6751 60.0767 76.4363C60.2011 76.3886 60.3286 76.3414 60.459 76.2947Z" fill="#0F1F2E"/>
<path d="M56.4714 94.8633C56.248 94.5261 55.9091 93.8652 55.6336 92.9973L55.7401 97.0094C55.7287 97.1961 55.8589 97.569 56.4714 97.569H61.5825C61.768 97.6003 62.1389 97.5318 62.1389 97.0094V95.3792C59.897 95.2546 57.8943 95.0867 56.4714 94.8633Z" fill="#0F1F2E"/>
<path d="M68.445 82.9679C69.8051 83.1005 73.5456 83.1998 77.5331 83.1998M55.6474 81.7067C55.8329 81.8392 56.5191 82.1248 57.0384 82.2042" stroke="black"/>
<path d="M84.1279 72.4691C87.1698 72.3944 87.6214 75.2529 87.4664 76.6915C85.4041 76.7665 82.8502 76.7997 79.862 76.7402C80.7898 73.5467 80.3259 72.5624 84.1279 72.4691Z" fill="#224567"/>
<path d="M88.301 69.8565C90.6752 71.3494 92.3818 74.7707 92.9379 76.2948C92.0585 76.4214 90.1906 76.5927 87.4664 76.6915C87.6209 75.2529 87.1698 72.3945 84.1279 72.4691C80.3259 72.5624 80.7898 73.5467 79.862 76.7402C79.0299 76.7238 78.0898 76.6682 77.2657 76.6682V71.5988C79.862 71.5988 80.5934 71.7855 80.5934 69.3899C85.4362 69.3634 87.2656 69.6645 88.301 69.8565Z" fill="#0F1F2E"/>
<path d="M77.2657 69.3899C77.9763 69.3723 79.9439 69.3935 80.5934 69.3899C80.5934 71.7855 79.862 71.5989 77.2657 71.5989V69.3899Z" fill="#224567"/>
<path d="M92.9379 76.2947C92.3818 74.7708 90.6752 71.3494 88.301 69.8565C87.2656 69.6645 85.4362 69.3635 80.5934 69.3899C79.9439 69.3935 77.9763 69.3723 77.2657 69.3899V68.5502C81.15 68.5502 85.828 68.8923 87.7448 69.11C90.7236 69.9663 93.1482 73.9035 94.1125 76.0147C94.1569 76.112 94.1984 76.2059 94.2364 76.2947H92.9379Z" fill="#6699CC"/>
<path d="M86.3536 82.9197C84.3445 83.0439 79.862 83.1064 77.2657 83.1064V78.0674C80.13 78.0674 88.3937 77.4765 92.1962 77.041C92.3443 77.5505 89.4928 80.6748 88.0488 82.1734C87.4383 82.4261 86.8649 82.6799 86.3536 82.9197Z" fill="#6699CC"/>
<path d="M99.0584 81.6133C98.8111 81.7687 98.2056 82.0984 97.7605 82.1734C98.2145 79.1464 93.6673 80.0775 89.6921 81.5314C94.1737 77.7829 96.045 77.2014 96.5435 77.402C96.5785 77.4264 96.6131 77.4507 96.6476 77.476C97.7822 78.3003 98.5313 79.4915 99.0584 81.6133Z" fill="#6699CC"/>
<path d="M89.6922 81.5314C89.1276 81.7379 88.5744 81.9554 88.0488 82.1734C89.4928 80.6748 92.3443 77.5505 92.1962 77.0411C88.3937 77.4765 80.13 78.0674 77.2657 78.0674V76.6681C78.0898 76.6681 79.0299 76.7238 79.862 76.7401C82.8502 76.7997 85.4041 76.7665 87.4664 76.6915C90.1906 76.5927 92.0585 76.4214 92.9379 76.2947H94.2364C94.3731 76.3538 94.5004 76.4 94.6188 76.4363C95.3591 76.7198 95.9952 77.0217 96.5435 77.402C96.0451 77.2014 94.1737 77.7824 89.6922 81.5314Z" fill="white"/>
<path d="M99.5223 90.1043C99.5223 91.1878 99.32 92.1834 99.0619 92.9973C98.786 93.8652 98.4474 94.5261 98.2239 94.8633C96.8011 95.0867 94.7985 95.2546 92.5565 95.3792C87.3179 95.6702 80.7725 95.7248 77.2657 95.703V94.5832C81.8918 94.5832 83.8189 93.8369 84.1279 93.2768L86.3536 93.2162L93.5874 93.0196L94.4219 92.9973C93.8258 90.8512 92.1755 86.559 90.3416 86.559H77.2657V83.1064C79.862 83.1064 84.3445 83.0439 86.3536 82.9197C87.541 83.5171 88.7648 84.537 89.2287 84.9725L95.0709 84.3195C95.7386 84.6924 96.0293 89.9489 96.091 92.5305C97.5749 91.0374 97.8222 85.0038 97.7605 82.1734C98.2056 82.0984 98.8112 81.7687 99.0584 81.6133C99.8934 84.9725 99.5223 87.3053 99.5223 90.1043Z" fill="#6699CC"/>
<path d="M77.2657 87.8649H87.7448C87.2809 89.2334 85.9642 91.7281 84.4062 92.2504C83.1389 92.4372 79.862 92.8106 77.2657 92.8106V87.8649Z" fill="#6699CC"/>
<path d="M90.3416 87.8649C91.0833 87.8649 92.8146 91.3015 93.5874 93.0196L86.3536 93.2162C87.3737 91.4326 89.5994 87.8649 90.3416 87.8649Z" fill="#224567"/>
<path d="M95.0709 84.3195L89.2287 84.9725C88.7648 84.537 87.541 83.5166 86.3536 82.9197C87.0958 82.9197 88.7032 83.7281 89.4138 84.1328L97.4585 82.9197C96.9087 83.6 95.7401 84.1105 95.0709 84.3195Z" fill="white"/>
<path d="M89.6922 81.5314C93.6673 80.0775 98.2145 79.1465 97.7605 82.1734C97.7605 82.4381 97.645 82.6889 97.4585 82.9198L89.4138 84.1328C88.7032 83.7281 87.0958 82.9198 86.3536 82.9198C86.8648 82.6804 87.4383 82.4262 88.0488 82.1734C88.5744 81.9554 89.1276 81.7385 89.6922 81.5314Z" fill="#0F1F2E"/>
<path d="M97.7605 82.1734C97.8222 85.0038 97.5749 91.0374 96.0909 92.5305C96.0293 89.9489 95.7386 84.6924 95.0709 84.3195C95.7401 84.1105 96.9087 83.6 97.4585 82.9197C97.645 82.6889 97.7605 82.4381 97.7605 82.1734Z" fill="#0F1F2E"/>
<path d="M87.7448 87.8649H77.2657V86.5585H90.3416C92.1755 86.5585 93.8258 90.8507 94.4219 92.9968L93.5874 93.0196C92.8146 91.3015 91.0833 87.8649 90.3416 87.8649C89.5994 87.8649 87.3737 91.4326 86.3536 93.2162L84.1279 93.2768C83.8189 93.8369 81.8918 94.5832 77.2657 94.5832V92.8106C79.862 92.8106 83.1389 92.4371 84.4062 92.2504C85.9642 91.7281 87.2809 89.2334 87.7448 87.8649Z" fill="#0F1F2E"/>
<path d="M77.2657 67.7104C84.1279 67.7104 87.003 68.5501 87.7448 69.11C85.828 68.8923 81.15 68.5501 77.2657 68.5501V67.7104Z" fill="white"/>
<path d="M94.2364 76.2947C94.1984 76.2059 94.1569 76.112 94.1125 76.0147C94.2773 76.108 94.7555 76.2386 95.3492 76.0147C94.9781 74.9573 94.6627 72.973 96.3693 73.4955C98.5022 74.1486 98.8733 74.0553 98.6878 75.1751C98.5392 76.0708 96.771 76.2947 95.9054 76.2947C95.7983 76.4571 95.4015 76.6751 94.6188 76.4363C94.4945 76.3886 94.3666 76.3414 94.2364 76.2947Z" fill="#0F1F2E"/>
<path d="M98.2239 94.8633C98.4474 94.5261 98.7865 93.8652 99.0619 92.9973L98.9553 97.0094C98.9666 97.1961 98.8363 97.569 98.2239 97.569H93.1131C92.9276 97.6003 92.5565 97.5318 92.5565 97.0094V95.3792C94.7985 95.2546 96.8011 95.0867 98.2239 94.8633Z" fill="#0F1F2E"/>
<path d="M86.2504 82.9679C84.8903 83.1005 81.15 83.1998 77.1625 83.1998M99.048 81.7067C98.8625 81.8392 98.1765 82.1248 97.6568 82.2042" stroke="black"/>
</g>
</g>
<defs>
<clipPath id="clip0_124_2218">
<rect width="76" height="72" fill="white" transform="translate(24 26)"/>
</clipPath>
</defs>
</svg>
